<?xml version="1.0" encoding="UTF-8"?>
<svg xmlns="http://www.w3.org/2000/svg" xmlns:xlink="http://www.w3.org/1999/xlink" width="43.5pt" height="43.499998pt" viewBox="0 0 43.5 43.499998" version="1.2">
<g id="surface1">
<path style=" stroke:none;fill-rule:nonzero;fill:rgb(100%,7.839966%,57.649231%);fill-opacity:1;" d="M 10.585938 10.769531 L 32.792969 10.769531 L 32.792969 32.980469 L 10.585938 32.980469 Z M 10.585938 10.769531 "/>
<path style=" stroke:none;fill-rule:nonzero;fill:rgb(100%,100%,100%);fill-opacity:1;" d="M 13.558594 13.445312 L 30.003906 13.445312 L 30.003906 29.890625 L 13.558594 29.890625 Z M 13.558594 13.445312 "/>
<path style=" stroke:none;fill-rule:nonzero;fill:rgb(100%,100%,100%);fill-opacity:1;" d="M 18.742188 29.859375 L 24.28125 29.859375 L 24.28125 35.398438 L 18.742188 35.398438 Z M 18.742188 29.859375 "/>
<path style=" stroke:none;fill-rule:nonzero;fill:rgb(100%,100%,100%);fill-opacity:1;" d="M 28.640625 18.988281 L 34.179688 18.988281 L 34.179688 24.523438 L 28.640625 24.523438 Z M 28.640625 18.988281 "/>
<path style=" stroke:none;fill-rule:nonzero;fill:rgb(100%,100%,100%);fill-opacity:1;" d="M 9.332031 18.988281 L 14.867188 18.988281 L 14.867188 24.523438 L 9.332031 24.523438 Z M 9.332031 18.988281 "/>
<path style=" stroke:none;fill-rule:nonzero;fill:rgb(100%,100%,100%);fill-opacity:1;" d="M 18.90625 9.925781 L 24.441406 9.925781 L 24.441406 15.464844 L 18.90625 15.464844 Z M 18.90625 9.925781 "/>
<path style=" stroke:none;fill-rule:nonzero;fill:rgb(100%,7.839966%,57.649231%);fill-opacity:1;" d="M 24.101562 13.394531 L 24.101562 10.769531 L 21.757812 13.347656 L 19.414062 10.769531 L 19.414062 13.394531 L 21.757812 15.972656 Z M 24.101562 13.394531 "/>
<path style=" stroke:none;fill-rule:nonzero;fill:rgb(100%,7.839966%,57.649231%);fill-opacity:1;" d="M 21.507812 18.382812 C 21.074219 18.382812 20.65625 18.46875 20.257812 18.632812 C 19.855469 18.796875 19.503906 19.035156 19.195312 19.339844 C 18.890625 19.648438 18.652344 20 18.488281 20.402344 C 18.320312 20.800781 18.238281 21.21875 18.238281 21.652344 C 18.238281 22.085938 18.320312 22.503906 18.488281 22.902344 C 18.652344 23.304688 18.890625 23.65625 19.195312 23.964844 C 19.503906 24.269531 19.855469 24.503906 20.257812 24.671875 C 20.65625 24.835938 21.074219 24.921875 21.507812 24.921875 C 21.941406 24.921875 22.355469 24.835938 22.757812 24.671875 C 23.15625 24.503906 23.511719 24.269531 23.816406 23.964844 C 24.125 23.65625 24.359375 23.304688 24.527344 22.902344 C 24.691406 22.503906 24.773438 22.085938 24.773438 21.652344 C 24.773438 21.21875 24.691406 20.800781 24.527344 20.402344 C 24.359375 20 24.125 19.648438 23.816406 19.339844 C 23.511719 19.035156 23.15625 18.796875 22.757812 18.632812 C 22.355469 18.46875 21.941406 18.382812 21.507812 18.382812 Z M 21.507812 18.382812 "/>
<path style=" stroke:none;fill-rule:nonzero;fill:rgb(100%,7.839966%,57.649231%);fill-opacity:1;" d="M 30.121094 24.1875 L 32.746094 24.1875 L 30.167969 21.84375 L 32.746094 19.5 L 30.121094 19.5 L 27.542969 21.84375 Z M 30.121094 24.1875 "/>
<path style=" stroke:none;fill-rule:nonzero;fill:rgb(100%,7.839966%,57.649231%);fill-opacity:1;" d="M 19.167969 30.300781 L 19.167969 32.929688 L 21.511719 30.351562 L 23.851562 32.929688 L 23.851562 30.300781 L 21.511719 27.722656 Z M 19.167969 30.300781 "/>
<path style=" stroke:none;fill-rule:nonzero;fill:rgb(100%,7.839966%,57.649231%);fill-opacity:1;" d="M 13.210938 19.511719 L 10.585938 19.511719 L 13.164062 21.855469 L 10.585938 24.195312 L 13.210938 24.195312 L 15.792969 21.855469 Z M 13.210938 19.511719 "/>
</g>
</svg>
