<?xml version="1.0" encoding="UTF-8"?>
<svg xmlns="http://www.w3.org/2000/svg" xmlns:xlink="http://www.w3.org/1999/xlink" width="45pt" height="44.999999pt" viewBox="0 0 45 44.999999" version="1.2">
<defs>
<clipPath id="clip1">
  <path d="M 6.425781 10.605469 L 38.675781 10.605469 L 38.675781 34.605469 L 6.425781 34.605469 Z M 6.425781 10.605469 "/>
</clipPath>
</defs>
<g id="surface1">
<rect x="0" y="0" width="45" height="44.999999" style="fill:rgb(100%,100%,100%);fill-opacity:1;stroke:none;"/>
<rect x="0" y="0" width="45" height="44.999999" style="fill:rgb(100%,100%,100%);fill-opacity:1;stroke:none;"/>
<rect x="0" y="0" width="45" height="44.999999" style="fill:rgb(97.24884%,97.24884%,100%);fill-opacity:1;stroke:none;"/>
<g clip-path="url(#clip1)" clip-rule="nonzero">
<path style=" stroke:none;fill-rule:nonzero;fill:rgb(100%,7.839966%,57.649231%);fill-opacity:1;" d="M 30.789062 26.800781 L 24.042969 33.585938 L 30.527344 20.941406 Z M 31.105469 26.484375 L 30.828125 20.46875 L 38.050781 19.5 Z M 31.027344 27.03125 L 36.84375 27.304688 L 24.273438 33.824219 Z M 37.324219 26.992188 L 31.34375 26.714844 L 38.285156 19.730469 Z M 30.515625 20.242188 L 23.265625 34.378906 L 23.261719 34.378906 L 23.261719 34.40625 C 23.261719 34.414062 23.261719 34.421875 23.261719 34.429688 C 23.261719 34.441406 23.261719 34.449219 23.261719 34.457031 L 23.261719 34.503906 L 23.273438 34.503906 L 23.292969 34.53125 L 23.320312 34.550781 L 23.347656 34.5625 L 23.484375 34.5625 L 37.542969 27.308594 L 37.550781 27.308594 L 37.570312 27.296875 L 37.574219 27.296875 L 37.601562 27.269531 L 37.617188 27.242188 L 37.617188 27.210938 L 38.675781 19.296875 L 38.675781 19.289062 C 38.675781 19.28125 38.675781 19.269531 38.675781 19.261719 L 38.675781 19.214844 L 38.660156 19.195312 L 38.65625 19.195312 L 38.636719 19.167969 L 38.609375 19.148438 L 38.601562 19.148438 L 38.582031 19.136719 L 38.503906 19.136719 L 30.640625 20.15625 L 30.597656 20.15625 L 30.574219 20.167969 L 30.566406 20.167969 L 30.539062 20.195312 L 30.535156 20.195312 L 30.519531 20.222656 Z M 13.761719 26.714844 L 7.78125 26.992188 L 6.8125 19.730469 Z M 13.992188 26.484375 L 7.050781 19.5 L 14.269531 20.46875 Z M 14.308594 26.800781 L 14.578125 20.949219 L 21.0625 33.589844 Z M 20.824219 33.824219 L 8.253906 27.304688 L 14.074219 27.03125 Z M 6.425781 19.28125 L 6.425781 19.289062 L 7.472656 27.183594 L 7.472656 27.230469 L 7.484375 27.257812 L 7.511719 27.285156 L 7.519531 27.285156 L 7.539062 27.296875 L 7.542969 27.296875 L 21.617188 34.605469 L 21.753906 34.605469 L 21.78125 34.589844 L 21.804688 34.570312 L 21.824219 34.542969 L 21.824219 34.496094 C 21.828125 34.488281 21.828125 34.480469 21.824219 34.472656 C 21.828125 34.460938 21.828125 34.453125 21.824219 34.445312 L 21.824219 34.417969 L 21.820312 34.417969 L 14.585938 20.242188 L 14.574219 20.214844 L 14.566406 20.214844 L 14.539062 20.1875 L 14.535156 20.1875 L 14.507812 20.175781 L 14.46875 20.175781 L 6.609375 19.109375 L 6.53125 19.109375 L 6.511719 19.125 L 6.503906 19.125 L 6.476562 19.144531 L 6.457031 19.167969 L 6.445312 19.167969 L 6.433594 19.191406 L 6.433594 19.234375 C 6.425781 19.25 6.425781 19.265625 6.425781 19.28125 Z M 22.386719 21.550781 L 22.386719 31.15625 L 18.082031 17.601562 Z M 22.386719 21.101562 L 17.957031 17.046875 L 22.386719 11.234375 Z M 22.714844 21.101562 L 22.714844 11.226562 L 27.144531 17.039062 Z M 22.714844 21.550781 L 27.019531 17.609375 L 22.714844 31.15625 Z M 17.582031 17.003906 L 17.582031 17.03125 C 17.578125 17.042969 17.578125 17.054688 17.582031 17.066406 L 17.582031 17.089844 L 22.390625 32.242188 L 22.390625 32.265625 L 22.417969 32.265625 L 22.4375 32.289062 L 22.457031 32.308594 L 22.648438 32.308594 L 22.667969 32.289062 L 22.6875 32.265625 L 22.695312 32.265625 L 22.695312 32.242188 L 27.507812 17.089844 L 27.507812 17.066406 C 27.507812 17.054688 27.507812 17.042969 27.507812 17.03125 L 27.507812 16.992188 L 27.492188 16.972656 L 27.488281 16.972656 L 22.683594 10.640625 L 22.675781 10.640625 L 22.660156 10.617188 L 22.648438 10.617188 L 22.628906 10.605469 L 22.472656 10.605469 L 22.453125 10.617188 L 22.4375 10.617188 L 22.425781 10.640625 L 22.417969 10.640625 L 17.605469 16.960938 L 17.601562 16.960938 L 17.585938 16.980469 L 17.585938 16.992188 L 17.582031 17.003906 "/>
</g>
</g>
</svg>
