<?xml version="1.0" encoding="UTF-8"?>
<svg xmlns="http://www.w3.org/2000/svg" xmlns:xlink="http://www.w3.org/1999/xlink" width="37.5pt" height="37.499999pt" viewBox="0 0 37.5 37.499999" version="1.2">
<defs>
<clipPath id="clip1">
  <path d="M 1.140625 5.71875 L 36.390625 5.71875 L 36.390625 31.96875 L 1.140625 31.96875 Z M 1.140625 5.71875 "/>
</clipPath>
</defs>
<g id="surface1">
<g clip-path="url(#clip1)" clip-rule="nonzero">
<path style=" stroke:none;fill-rule:nonzero;fill:rgb(100%,7.839966%,57.649231%);fill-opacity:1;" d="M 27.769531 23.433594 L 20.398438 30.851562 L 27.484375 17.027344 Z M 28.117188 23.085938 L 27.8125 16.503906 L 35.707031 15.449219 Z M 28.03125 23.683594 L 34.390625 23.980469 L 20.648438 31.113281 Z M 34.914062 23.640625 L 28.375 23.335938 L 35.964844 15.699219 Z M 27.46875 16.257812 L 19.546875 31.71875 L 19.539062 31.71875 L 19.539062 31.75 C 19.539062 31.757812 19.539062 31.769531 19.539062 31.777344 C 19.539062 31.789062 19.539062 31.796875 19.539062 31.804688 L 19.539062 31.859375 L 19.554688 31.859375 L 19.578125 31.886719 L 19.605469 31.90625 L 19.632812 31.921875 L 19.785156 31.921875 L 35.152344 23.988281 L 35.160156 23.988281 L 35.179688 23.976562 L 35.1875 23.976562 L 35.214844 23.945312 L 35.230469 23.917969 L 35.230469 23.878906 L 36.390625 15.222656 L 36.390625 15.214844 C 36.390625 15.207031 36.390625 15.195312 36.390625 15.1875 L 36.390625 15.136719 L 36.375 15.113281 L 36.367188 15.113281 L 36.34375 15.085938 L 36.316406 15.0625 L 36.308594 15.0625 L 36.289062 15.050781 L 36.203125 15.050781 L 27.605469 16.164062 L 27.5625 16.164062 L 27.53125 16.179688 L 27.527344 16.179688 L 27.496094 16.207031 L 27.488281 16.207031 L 27.476562 16.238281 Z M 9.160156 23.335938 L 2.621094 23.640625 L 1.5625 15.699219 Z M 9.410156 23.085938 L 1.820312 15.449219 L 9.714844 16.503906 Z M 9.757812 23.433594 L 10.050781 17.03125 L 17.136719 30.859375 Z M 16.878906 31.113281 L 3.140625 23.980469 L 9.496094 23.683594 Z M 1.140625 15.210938 L 1.140625 15.214844 L 2.28125 23.851562 L 2.28125 23.902344 L 2.296875 23.929688 L 2.324219 23.960938 L 2.332031 23.960938 L 2.355469 23.976562 L 2.363281 23.976562 L 17.742188 31.964844 L 17.894531 31.964844 L 17.921875 31.953125 L 17.949219 31.929688 L 17.972656 31.902344 L 17.972656 31.851562 C 17.972656 31.839844 17.972656 31.832031 17.972656 31.820312 C 17.972656 31.8125 17.972656 31.800781 17.972656 31.792969 L 17.972656 31.761719 L 17.964844 31.761719 L 10.058594 16.257812 L 10.042969 16.230469 L 10.039062 16.230469 L 10.007812 16.199219 L 10 16.199219 L 9.972656 16.1875 L 9.929688 16.1875 L 1.339844 15.019531 L 1.253906 15.019531 L 1.230469 15.035156 L 1.226562 15.035156 L 1.195312 15.058594 L 1.175781 15.085938 L 1.160156 15.085938 L 1.144531 15.109375 L 1.144531 15.160156 C 1.140625 15.175781 1.140625 15.191406 1.140625 15.210938 Z M 18.582031 17.691406 L 18.582031 28.195312 L 13.878906 13.371094 Z M 18.582031 17.199219 L 13.742188 12.761719 L 18.582031 6.40625 Z M 18.945312 17.199219 L 18.945312 6.398438 L 23.785156 12.753906 Z M 18.945312 17.691406 L 23.648438 13.378906 L 18.945312 28.195312 Z M 13.332031 12.71875 L 13.332031 12.75 C 13.332031 12.761719 13.332031 12.773438 13.332031 12.785156 L 13.332031 12.8125 L 18.589844 29.382812 L 18.589844 29.410156 L 18.621094 29.410156 L 18.640625 29.433594 L 18.664062 29.453125 L 18.871094 29.453125 L 18.894531 29.433594 L 18.914062 29.410156 L 18.921875 29.410156 L 18.921875 29.382812 L 24.179688 12.8125 L 24.179688 12.785156 C 24.183594 12.773438 24.183594 12.761719 24.179688 12.75 L 24.179688 12.703125 L 24.167969 12.683594 L 24.160156 12.683594 L 18.90625 5.753906 L 18.898438 5.753906 L 18.886719 5.734375 L 18.871094 5.734375 L 18.851562 5.71875 L 18.675781 5.71875 L 18.65625 5.734375 L 18.640625 5.734375 L 18.628906 5.753906 L 18.621094 5.753906 L 13.359375 12.667969 L 13.355469 12.667969 L 13.339844 12.691406 L 13.339844 12.703125 L 13.332031 12.71875 "/>
</g>
</g>
</svg>
